<?xml version="1.0" encoding="UTF-8" standalone="no"?>
<!-- Created with Inkscape (http://www.inkscape.org/) -->

<svg
   xmlns:dc="http://purl.org/dc/elements/1.1/"
   xmlns:cc="http://creativecommons.org/ns#"
   xmlns:rdf="http://www.w3.org/1999/02/22-rdf-syntax-ns#"
   xmlns:svg="http://www.w3.org/2000/svg"
   xmlns="http://www.w3.org/2000/svg"
   xmlns:sodipodi="http://sodipodi.sourceforge.net/DTD/sodipodi-0.dtd"
   xmlns:inkscape="http://www.inkscape.org/namespaces/inkscape"
   width="180"
   height="100"
   id="svg2"
   version="1.1"
   inkscape:version="0.48.4 r9939"
   sodipodi:docname="New document 1">
  <defs
     id="defs4" />
  <sodipodi:namedview
     id="base"
     pagecolor="#ffffff"
     bordercolor="#666666"
     borderopacity="1.0"
     inkscape:pageopacity="0.0"
     inkscape:pageshadow="2"
     inkscape:zoom="1.979899"
     inkscape:cx="88.572157"
     inkscape:cy="95.241059"
     inkscape:document-units="px"
     inkscape:current-layer="layer1"
     showgrid="false"
     showguides="true"
     inkscape:guide-bbox="true"
     inkscape:window-width="782"
     inkscape:window-height="733"
     inkscape:window-x="24"
     inkscape:window-y="114"
     inkscape:window-maximized="0" />
  <metadata
     id="metadata7">
    <rdf:RDF>
      <cc:Work
         rdf:about="">
        <dc:format>image/svg+xml</dc:format>
        <dc:type
           rdf:resource="http://purl.org/dc/dcmitype/StillImage" />
        <dc:title></dc:title>
      </cc:Work>
    </rdf:RDF>
  </metadata>
  <g
     inkscape:label="Layer 1"
     inkscape:groupmode="layer"
     id="layer1"
     transform="translate(0,-952.36218)">
    <text
       xml:space="preserve"
       style="font-size:40px;font-style:normal;font-variant:normal;font-weight:normal;font-stretch:normal;line-height:125%;letter-spacing:0px;word-spacing:0px;fill:#333333;fill-opacity:1;stroke:none;font-family:Myriad Pro;-inkscape-font-specification:Myriad Pro"
       x="45.538086"
       y="1015.9561"
       id="text2985"
       sodipodi:linespacing="125%"><tspan
         sodipodi:role="line"
         id="tspan2987"
         x="45.538086"
         y="1015.9561"
         style="font-style:normal;font-variant:normal;font-weight:bold;font-stretch:normal;fill:#333333;font-family:Droid Sans;-inkscape-font-specification:Droid Sans Bold">boot</tspan></text>
    <text
       xml:space="preserve"
       style="font-size:40px;font-style:normal;font-variant:normal;font-weight:normal;font-stretch:normal;line-height:125%;letter-spacing:0px;word-spacing:0px;fill:#000000;fill-opacity:1;stroke:none;font-family:Myriad Pro;-inkscape-font-specification:Myriad Pro"
       x="13.131983"
       y="994.78351"
       id="text2989"
       sodipodi:linespacing="125%"><tspan
         sodipodi:role="line"
         id="tspan2991"
         x="13.131983"
         y="994.78351" /></text>
    <g
       id="g3122"
       transform="matrix(0.3616716,0,0,0.3616716,103.72529,635.88366)"
       style="fill:#333333">
      <path
         d="m 113.05731,1014.9865 c 0,27.511 -11.155,52.416 -29.181996,70.446 l 22.296996,22.299 c 23.737,-23.733 38.422,-56.526 38.422,-92.746 0,-36.22195 -14.684,-69.01195 -38.422,-92.74897 l -22.296996,22.30302 c 18.027996,18.031 29.181996,42.936 29.181996,70.44695 z"
         id="path3081"
         inkscape:connector-curvature="0"
         style="fill:#333333" />
      <path
         d="m 148.91031,879.50953 -24.282,24.279 c 28.461,28.45902 46.066,67.77302 46.066,111.19797 0,43.425 -17.605,82.743 -46.06,111.201 l 24.276,24.276 c 34.672,-34.671 56.118,-82.571 56.118,-135.477 0,-52.90595 -21.447,-100.80497 -56.118,-135.47697 z"
         id="path3089"
         inkscape:connector-curvature="0"
         style="fill:#333333" />
    </g>
    <g
       style="fill:#333333"
       transform="matrix(-0.3616716,0,0,0.3616716,76.21353,635.88366)"
       id="g3126">
      <path
         style="fill:#333333"
         inkscape:connector-curvature="0"
         id="path3128"
         d="m 113.05731,1014.9865 c 0,27.511 -11.155,52.416 -29.181996,70.446 l 22.296996,22.299 c 23.737,-23.733 38.422,-56.526 38.422,-92.746 0,-36.22195 -14.684,-69.01195 -38.422,-92.74897 l -22.296996,22.30302 c 18.027996,18.031 29.181996,42.936 29.181996,70.44695 z" />
      <path
         style="fill:#333333"
         inkscape:connector-curvature="0"
         id="path3130"
         d="m 148.91031,879.50953 -24.282,24.279 c 28.461,28.45902 46.066,67.77302 46.066,111.19797 0,43.425 -17.605,82.743 -46.06,111.201 l 24.276,24.276 c 34.672,-34.671 56.118,-82.571 56.118,-135.477 0,-52.90595 -21.447,-100.80497 -56.118,-135.47697 z" />
    </g>
  </g>
</svg>
